<?xml version="1.0" encoding="utf-8"?>
<!-- Generator: Adobe Illustrator 24.0.0, SVG Export Plug-In . SVG Version: 6.00 Build 0)  -->
<svg version="1.1" id="Laag_2" xmlns="http://www.w3.org/2000/svg" xmlns:xlink="http://www.w3.org/1999/xlink" x="0px" y="0px"
	 viewBox="0 0 814.7 543.1" style="enable-background:new 0 0 814.7 543.1;" xml:space="preserve">
<style type="text/css">
	.st0{fill:#FFE30B;}
</style>
<polygon class="st0" points="0,0 180.9,0 180.9,90.3 271.4,90.3 271.4,180.9 361.7,180.9 361.7,271.6 452.7,271.6 452.7,181.3 
	542.5,181.3 542.5,90.9 633.2,90.9 633.2,0 814.7,0 814.7,180.7 724,180.7 724,271.6 633.5,271.6 633.5,361.8 543.1,361.8 
	543.1,452.3 452.7,452.3 452.7,543.1 362,543.1 362,452.6 271.3,452.6 271.3,362.1 181.2,362.1 181.2,271.6 90.5,271.6 90.5,180.7 
	0,180.7 "/>
</svg>
